<svg width="1116" height="1116" viewBox="0 0 1116 1116" fill="none" xmlns="http://www.w3.org/2000/svg">
<path fill-rule="evenodd" clip-rule="evenodd" d="M558 1101C857.891 1101 1101 857.891 1101 558C1101 258.109 857.891 15 558 15C258.109 15 15 258.109 15 558C15 857.891 258.109 1101 558 1101ZM882.209 608.252C723.425 441.83 585.36 486.495 501.5 563.648C509.333 513.598 510.2 392.7 451 309.5C430.515 321.521 395.731 345.463 361 376.715C349 331.31 309.2 221.4 246 145C110.4 249 55.8333 402.333 45.5 466C31.5 655.833 111.6 1042.2 544 1069C601.434 976.91 607.256 918.106 605.5 809.921C668.345 815.249 802.407 797.248 887.576 693.748C908.358 668.493 904.787 631.915 882.209 608.252Z" fill="black"/>
<path d="M501.5 563.648L486.68 561.328C485.694 567.63 488.801 573.866 494.425 576.875C500.05 579.883 506.962 579.005 511.656 574.686L501.5 563.648ZM882.209 608.252L871.357 618.606L871.357 618.606L882.209 608.252ZM451 309.5L463.222 300.804C458.714 294.469 450.114 292.628 443.409 296.563L451 309.5ZM361 376.715L346.498 380.548C347.834 385.602 351.704 389.596 356.713 391.09C361.722 392.583 367.148 391.362 371.033 387.866L361 376.715ZM246 145L257.558 135.439C252.415 129.221 243.274 128.187 236.871 133.098L246 145ZM45.5 466L30.6937 463.597C30.6238 464.028 30.5727 464.461 30.5406 464.897L45.5 466ZM544 1069L543.072 1083.97C548.57 1084.31 553.812 1081.61 556.728 1076.94L544 1069ZM605.5 809.921L606.767 794.975C602.541 794.617 598.361 796.064 595.262 798.959C592.162 801.853 590.433 805.925 590.502 810.165L605.5 809.921ZM887.576 693.748L899.159 703.279L899.159 703.279L887.576 693.748ZM455.823 590.585C450.623 597.035 451.636 606.478 458.085 611.678C464.534 616.877 473.978 615.864 479.177 609.415L455.823 590.585ZM501.5 563.648L511.656 574.686C514.673 571.911 516.422 568.021 516.497 563.923C516.573 559.824 514.967 555.873 512.054 552.989L501.5 563.648ZM602.888 824.692C611.045 826.135 618.828 820.691 620.271 812.534C621.714 804.376 616.27 796.593 608.112 795.151L602.888 824.692ZM549.443 778.523C541.723 775.517 533.028 779.338 530.022 787.057C527.016 794.777 530.837 803.472 538.557 806.478L549.443 778.523ZM43.7257 451.105C35.4996 452.085 29.6254 459.548 30.6053 467.774C31.5852 476 39.0482 481.875 47.2743 480.895L43.7257 451.105ZM371.033 387.866C377.192 382.324 377.692 372.84 372.15 366.682C366.609 360.524 357.125 360.024 350.967 365.565L371.033 387.866ZM1086 558C1086 849.606 849.606 1086 558 1086V1116C866.175 1116 1116 866.175 1116 558H1086ZM558 30C849.606 30 1086 266.394 1086 558H1116C1116 249.825 866.175 0 558 0V30ZM30 558C30 266.394 266.394 30 558 30V0C249.825 0 0 249.825 0 558H30ZM558 1086C266.394 1086 30 849.606 30 558H0C0 866.175 249.825 1116 558 1116V1086ZM511.656 574.686C551.777 537.774 603.802 509.616 663.76 509.609C723.422 509.602 793.949 537.475 871.357 618.606L893.062 597.897C811.685 512.606 733.787 479.601 663.756 479.609C594.02 479.617 535.082 512.368 491.344 552.609L511.656 574.686ZM438.778 318.196C466.458 357.097 480.497 405.482 486.517 450.973C492.529 496.405 490.379 537.697 486.68 561.328L516.32 565.967C520.454 539.548 522.654 495.368 516.258 447.037C509.87 398.767 494.742 345.103 463.222 300.804L438.778 318.196ZM371.033 387.866C405.001 357.3 438.965 333.954 458.591 322.437L443.409 296.563C422.064 309.087 386.461 333.626 350.967 365.565L371.033 387.866ZM234.442 154.561C295.686 228.597 334.766 336.158 346.498 380.548L375.502 372.882C363.234 326.462 322.714 214.203 257.558 135.439L234.442 154.561ZM60.3062 468.403C70.1921 407.493 123.292 258.016 255.129 156.902L236.871 133.098C97.5076 239.984 41.4745 397.173 30.6937 463.597L60.3062 468.403ZM544.928 1054.03C333.964 1040.95 210.227 940.638 140.298 821.065C69.8651 700.629 53.624 559.787 60.4594 467.103L30.5406 464.897C23.3759 562.046 40.1848 709.304 114.402 836.21C189.123 963.978 321.636 1070.25 543.072 1083.97L544.928 1054.03ZM590.502 810.165C591.378 864.142 590.311 904.431 582.272 942.388C574.298 980.038 559.29 1016.14 531.272 1061.06L556.728 1076.94C586.144 1029.77 602.764 990.424 611.621 948.604C620.413 907.09 621.378 863.885 620.498 809.678L590.502 810.165ZM875.993 684.217C795.1 782.521 666.815 800.066 606.767 794.975L604.233 824.868C669.874 830.433 809.714 811.975 899.159 703.279L875.993 684.217ZM871.357 618.606C889.381 637.498 891.349 665.556 875.993 684.217L899.159 703.279C925.367 671.429 920.193 626.332 893.062 597.897L871.357 618.606ZM479.177 609.415C488.778 597.507 499.645 585.737 511.656 574.686L491.344 552.609C478.168 564.731 466.292 577.599 455.823 590.585L479.177 609.415ZM608.112 795.151C588.994 791.769 569.454 786.315 549.443 778.523L538.557 806.478C560.324 814.954 581.757 820.955 602.888 824.692L608.112 795.151ZM512.054 552.989C480.054 521.305 402.637 475.766 283.548 455.239L278.452 484.803C393.127 504.57 464.364 547.987 490.946 574.307L512.054 552.989ZM283.548 455.239C216.744 443.724 136.643 440.037 43.7257 451.105L47.2743 480.895C137.38 470.161 214.568 473.791 278.452 484.803L283.548 455.239ZM350.967 365.565C320.656 392.839 289.826 426.043 268.127 462.321L293.873 477.721C313.472 444.953 341.955 414.031 371.033 387.866L350.967 365.565Z" fill="black"/>
<circle cx="558" cy="558" r="518" stroke="black" stroke-width="50"/>
<circle cx="643" cy="608" r="20" fill="black"/>
<circle cx="725" cy="589" r="20" fill="black"/>
</svg>
